@startuml klondike--vocabulary
skinparam handwritten true

title Klondike Vocabulary

class Klondike {
    nGame = integer
    status = integer
}
class Player {
    id = integer
    name = string
}

class Pile {
    nCards = integer
}
    class Stock
    class Waste
    class Foundation {
        suit = string
    }
    class Tableau

class Deck

class Card {
    faceup = boolean
}
enum Rank {
    Ace,
    Two,
    Three,
    Four,
    Five,
    Six,
    Seven,
    Eight,
    Nine,
    Ten,
    Jack,
    Queen,
    King
}

class Suit
    class Spades
    class Hearts
    class Diamonds
    class Clubs

enum Color {
    Red,
    Black
}

abstract Action
    class Move
    class TurnOver

class Goal {
    status = boolean
}

class Spades {
    color = black
}

class Clubs {
    color = black
}

class Diamonds {
    color = red
}

class Hearts {
    color = red
}



Klondike *--> Player
Klondike *--> "4" Pile
Klondike *--> Deck
Klondike *--> Goal

Player ..> Action
Player o--> Goal
Player ..> Deck
Goal *--> FoundationComplete
FoundationComplete --> "4" Foundation
FoundationComplete *---> "4" Suit

Action -left-> Goal
Action <|-down-- Move
Action <|-down-- TurnOver
Move --> "1..12" Card
TurnOver --> Card

Pile o--> Card
Pile <|-down- Stock
Pile <|-down- Waste
Pile <|-down- "4" Foundation
Pile <|-down- "7" Tableau

Deck *---> "4 " Suit
Suit *--> "13" Card
Card --> Rank

Suit --> Color
Suit <|-- Hearts
Suit <|-- Spades
Suit <|-- Diamonds
Suit <|-- Clubs



@enduml